# xmcd CD database file
#
# Track frame offsets:
#	150
#	18410
#	36755
#	69717
#	103555
#	126852
#	145100
#
# Disc length: 2175 seconds
#
# Revision: 6
# Processed by: cddbd v1.5.2PL0 Copyright (c) Steve Scherf et al.
# Submitted via: CDex 1.70beta3
#
DISCID=5c087d07
DTITLE=白河ことり (堀江由衣) - 天枷美春 (神田朱未) - D.C.～ダ・カーポ～ キャラクターイメージソング VOL. 3
DYEAR=2003
DGENRE=Anime
TTITLE0=白河ことり (堀江由衣) - Pureness
TTITLE1=天枷美春 (神田朱未) - 素顔でFly to you
TTITLE2=キャラクターシリーズ第6話 FORTUNE TALES
TTITLE3=キャラクターシリーズ第7話 I WISH
TTITLE4=フリートーク・学生時代の想い出 その3～堀江由衣・神田朱未・泰勇気～
TTITLE5=白河ことり (堀江由衣) - Pureness(off vocal)
TTITLE6=天枷美春 (神田朱未) - 素顔でFly to you(off vocal)
EXTD=YEAR: 2003
EXTT0=
EXTT1=
EXTT2=
EXTT3=
EXTT4=
EXTT5=
EXTT6=
PLAYORDER=
